<svg id="SvgjsSvg1021" width="288" height="288" xmlns="http://www.w3.org/2000/svg" version="1.1" xmlns:xlink="http://www.w3.org/1999/xlink" xmlns:svgjs="http://svgjs.com/svgjs"><defs id="SvgjsDefs1022"></defs><g id="SvgjsG1023" transform="matrix(0.916700005531311,0,0,0.916700005531311,11.995199203491211,11.995199203491211)"><svg xmlns="http://www.w3.org/2000/svg" viewBox="0 0 24 24" width="288" height="288"><path d="M12,22A10,10,0,1,1,22,12,10,10,0,0,1,12,22ZM12,4a8,8,0,1,0,8,8A8,8,0,0,0,12,4Z" fill="#ffffff" class="color000 svgShape"></path><path d="M16,12a1,1,0,0,1-.71-.29L12,8.41,8.71,11.71a1,1,0,0,1-1.41-1.41l4-4a1,1,0,0,1,1.41,0l4,4A1,1,0,0,1,16,12Z" fill="#ffffff" class="color000 svgShape"></path><path d="M12,18a1,1,0,0,1-1-1V7a1,1,0,0,1,2,0V17A1,1,0,0,1,12,18Z" fill="#ffffff" class="color000 svgShape"></path></svg></g></svg>